# Blender v2.93.2 OBJ File: 'Book2.blend'
# www.blender.org
mtllib Book2.mtl
o Cube_Cube.001
v 0.078396 0.125026 -0.016677
v 0.078396 -0.125026 -0.016677
v -0.101797 0.125026 -0.016677
v -0.101797 -0.125026 -0.016677
v -0.099778 -0.125026 -0.021786
v 0.078396 0.125026 -0.021786
v -0.099778 0.125026 -0.021786
v 0.078396 -0.125026 -0.021786
v 0.078396 0.125026 -0.016677
v 0.078396 -0.125026 -0.016677
v -0.101797 0.125026 -0.016677
v -0.101797 -0.125026 -0.016677
v 0.072773 0.122099 -0.016677
v 0.072773 -0.122099 -0.016677
v -0.094156 0.122099 -0.016677
v -0.094156 -0.122099 -0.016677
v 0.078396 0.125026 -0.016677
v 0.078396 -0.125026 -0.016677
v -0.101797 0.125026 -0.016677
v -0.101797 -0.125026 -0.016677
v -0.099778 -0.125026 -0.021786
v 0.078396 0.125026 -0.021786
v -0.099778 0.125026 -0.021786
v 0.078396 -0.125026 -0.021786
v 0.078396 0.125026 -0.016677
v 0.078396 -0.125026 -0.016677
v -0.101797 0.125026 -0.016677
v -0.101797 -0.125026 -0.016677
v 0.072773 0.122099 -0.016677
v 0.072773 -0.122099 -0.016677
v -0.094156 0.122099 -0.016677
v -0.094156 -0.122099 -0.016677
v 0.078396 0.125026 0.016677
v 0.078396 -0.125026 0.016677
v -0.101797 0.125026 0.016677
v -0.101797 -0.125026 0.016677
v -0.099778 -0.125026 0.021786
v 0.078396 0.125026 0.021786
v -0.099778 0.125026 0.021786
v 0.078396 -0.125026 0.021786
v 0.078396 0.125026 0.016677
v 0.078396 -0.125026 0.016677
v -0.101797 0.125026 0.016677
v -0.101797 -0.125026 0.016677
v 0.072773 0.122099 0.016677
v 0.072773 -0.122099 0.016677
v -0.094156 0.122099 0.016677
v -0.094156 -0.122099 0.016677
v 0.072773 0.122099 0.000000
v 0.072773 -0.122099 0.000000
v -0.094156 0.122099 0.000000
v -0.094156 -0.122099 0.000000
v -0.101797 -0.125026 0.000000
v -0.101797 0.125026 0.000000
v -0.094156 -0.122099 0.000000
v -0.094156 0.122099 0.000000
v 0.078396 0.125026 0.016677
v 0.078396 -0.125026 0.016677
v -0.101797 0.125026 0.016677
v -0.101797 -0.125026 0.016677
v -0.099778 -0.125026 0.021786
v 0.078396 0.125026 0.021786
v -0.099778 0.125026 0.021786
v 0.078396 -0.125026 0.021786
v 0.078396 0.125026 0.016677
v 0.078396 -0.125026 0.016677
v -0.101797 0.125026 0.016677
v -0.101797 -0.125026 0.016677
v 0.072773 0.122099 0.016677
v 0.072773 -0.122099 0.016677
v -0.094156 0.122099 0.016677
v -0.094156 -0.122099 0.016677
v 0.072773 0.122099 0.000000
v 0.072773 -0.122099 0.000000
v -0.094156 0.122099 0.000000
v -0.094156 -0.122099 0.000000
v -0.101797 -0.125026 0.000000
v -0.101797 0.125026 0.000000
v -0.094156 -0.122099 0.000000
v -0.094156 0.122099 0.000000
vt 0.807729 0.941669
vt 0.800952 0.941669
vt 0.800952 0.702678
vt 0.807729 0.705356
vt 0.125417 0.710442
vt 0.125417 0.710442
vt 0.125417 0.710442
vt 0.125417 0.710442
vt 0.683539 0.705356
vt 0.690315 0.702678
vt 0.690315 0.941669
vt 0.683539 0.941669
vt 0.978450 0.359936
vt 0.985213 0.359936
vt 0.985213 0.691581
vt 0.978450 0.691581
vt 0.958016 0.009431
vt 0.964945 0.009431
vt 0.964945 0.341075
vt 0.958016 0.341075
vt 0.267283 0.341075
vt 0.274740 0.337193
vt 0.496138 0.337193
vt 0.506273 0.341075
vt 0.125417 0.710442
vt 0.125417 0.710442
vt 0.125417 0.710442
vt 0.125417 0.710442
vt 0.664678 0.924076
vt 0.642599 0.924076
vt 0.642599 0.702678
vt 0.664678 0.702678
vt 0.782091 0.691581
vt 0.760038 0.691581
vt 0.760038 0.359936
vt 0.782091 0.359936
vt 0.506273 0.009431
vt 0.496138 0.013313
vt 0.274740 0.013313
vt 0.267283 0.009431
vt 0.882765 0.359936
vt 0.904801 0.359936
vt 0.904801 0.683817
vt 0.882765 0.683817
vt 0.541857 0.924076
vt 0.519778 0.924076
vt 0.519778 0.702678
vt 0.541857 0.702678
vt 0.863903 0.683817
vt 0.841867 0.683817
vt 0.841867 0.359936
vt 0.863903 0.359936
vt 0.019566 0.710442
vt 0.019566 0.732537
vt 0.009431 0.732537
vt 0.009431 0.710442
vt 0.106556 0.710442
vt 0.106556 0.732537
vt 0.096421 0.732537
vt 0.096421 0.710442
vt 0.800952 0.359936
vt 0.823005 0.359936
vt 0.823005 0.683817
vt 0.800952 0.683817
vt 0.245743 0.359936
vt 0.245743 0.691581
vt 0.009431 0.691581
vt 0.009431 0.359936
vt 0.709177 0.941669
vt 0.709177 0.705356
vt 0.715953 0.702678
vt 0.715953 0.941669
vt 0.144279 0.710442
vt 0.144279 0.710442
vt 0.144279 0.710442
vt 0.144279 0.710442
vt 0.833366 0.705356
vt 0.833366 0.941669
vt 0.826590 0.941669
vt 0.826590 0.702678
vt 0.990569 0.009431
vt 0.990569 0.341075
vt 0.983806 0.341075
vt 0.983806 0.009431
vt 0.959588 0.359936
vt 0.959588 0.691581
vt 0.952659 0.691581
vt 0.952659 0.359936
vt 0.248421 0.341075
vt 0.009431 0.341075
vt 0.019566 0.337193
vt 0.240964 0.337193
vt 0.144279 0.710442
vt 0.144279 0.710442
vt 0.144279 0.710442
vt 0.144279 0.710442
vt 0.582797 0.702678
vt 0.582797 0.924076
vt 0.560719 0.924076
vt 0.560719 0.702678
vt 0.765394 0.341075
vt 0.765394 0.009431
vt 0.787447 0.009431
vt 0.787447 0.341075
vt 0.009431 0.009431
vt 0.248421 0.009431
vt 0.240964 0.013313
vt 0.019566 0.013313
vt 0.869260 0.009431
vt 0.869260 0.333311
vt 0.847223 0.333311
vt 0.847223 0.009431
vt 0.623738 0.702678
vt 0.623738 0.924076
vt 0.601659 0.924076
vt 0.601659 0.702678
vt 0.888121 0.333311
vt 0.888121 0.009431
vt 0.910158 0.009431
vt 0.910158 0.333311
vt 0.038427 0.710442
vt 0.048563 0.710442
vt 0.048563 0.732537
vt 0.038427 0.732537
vt 0.067424 0.710442
vt 0.077559 0.710442
vt 0.077559 0.732537
vt 0.067424 0.732537
vt 0.828362 0.009431
vt 0.828362 0.333311
vt 0.806309 0.333311
vt 0.806309 0.009431
vt 0.264605 0.359936
vt 0.500917 0.359936
vt 0.500917 0.691581
vt 0.264605 0.691581
vt 0.807729 0.941669
vt 0.807729 0.705356
vt 0.800952 0.702678
vt 0.800952 0.941669
vt 0.125417 0.710442
vt 0.125417 0.710442
vt 0.125417 0.710442
vt 0.125417 0.710442
vt 0.683539 0.705356
vt 0.683539 0.941669
vt 0.690315 0.941669
vt 0.690315 0.702678
vt 0.978450 0.359936
vt 0.978450 0.691581
vt 0.985213 0.691581
vt 0.985213 0.359936
vt 0.958016 0.009431
vt 0.958016 0.341075
vt 0.964945 0.341075
vt 0.964945 0.009431
vt 0.267283 0.341075
vt 0.506273 0.341075
vt 0.496138 0.337193
vt 0.274740 0.337193
vt 0.125417 0.710442
vt 0.125417 0.710442
vt 0.125417 0.710442
vt 0.125417 0.710442
vt 0.664678 0.924076
vt 0.664678 0.702678
vt 0.782091 0.691581
vt 0.782091 0.359936
vt 0.506273 0.009431
vt 0.267283 0.009431
vt 0.274740 0.013313
vt 0.496138 0.013313
vt 0.519778 0.359936
vt 0.519778 0.683817
vt 0.741176 0.683817
vt 0.741177 0.359936
vt 0.882765 0.359936
vt 0.882765 0.683817
vt 0.541857 0.924076
vt 0.541857 0.702678
vt 0.863903 0.683817
vt 0.863903 0.359936
vt 0.929019 0.009431
vt 0.929019 0.341075
vt 0.939154 0.337193
vt 0.939154 0.013313
vt 0.019566 0.710442
vt 0.009431 0.710442
vt 0.106556 0.710442
vt 0.096421 0.710442
vt 0.800952 0.359936
vt 0.800952 0.683817
vt 0.245743 0.359936
vt 0.009431 0.359936
vt 0.009431 0.691581
vt 0.245743 0.691581
vt 0.709177 0.941669
vt 0.715953 0.941669
vt 0.715953 0.702678
vt 0.709177 0.705356
vt 0.144279 0.710442
vt 0.144279 0.710442
vt 0.144279 0.710442
vt 0.144279 0.710442
vt 0.833366 0.705356
vt 0.826590 0.702678
vt 0.826590 0.941669
vt 0.833366 0.941669
vt 0.990569 0.009431
vt 0.983806 0.009431
vt 0.983806 0.341075
vt 0.990569 0.341075
vt 0.959588 0.359936
vt 0.952659 0.359936
vt 0.952659 0.691581
vt 0.959588 0.691581
vt 0.248421 0.341075
vt 0.240964 0.337193
vt 0.019566 0.337193
vt 0.009431 0.341075
vt 0.144279 0.710442
vt 0.144279 0.710442
vt 0.144279 0.710442
vt 0.144279 0.710442
vt 0.582797 0.702678
vt 0.582797 0.924076
vt 0.765394 0.341075
vt 0.765394 0.009431
vt 0.009431 0.009431
vt 0.019566 0.013313
vt 0.240964 0.013313
vt 0.248421 0.009431
vt 0.746533 0.009431
vt 0.525135 0.009431
vt 0.525135 0.333311
vt 0.746533 0.333311
vt 0.869260 0.009431
vt 0.869260 0.333311
vt 0.623738 0.702678
vt 0.623738 0.924076
vt 0.888121 0.333311
vt 0.888121 0.009431
vt 0.923663 0.691581
vt 0.933798 0.687699
vt 0.933798 0.363818
vt 0.923663 0.359936
vt 0.038427 0.710442
vt 0.048563 0.710442
vt 0.067424 0.710442
vt 0.077559 0.710442
vt 0.828362 0.009431
vt 0.828362 0.333311
vt 0.264605 0.359936
vt 0.264605 0.691581
vt 0.500917 0.691581
vt 0.500917 0.359936
vn 0.0000 -1.0000 0.0000
vn 0.0000 0.0000 1.0000
vn 0.0000 1.0000 0.0000
vn -1.0000 0.0000 0.0000
vn 0.9300 0.0000 0.3676
vn 0.0000 0.0000 -1.0000
vn 1.0000 0.0000 0.0000
vn -0.3577 0.9338 0.0000
vn -0.3577 -0.9338 0.0000
vn -0.9300 0.0000 -0.3676
vn 0.3577 -0.9338 0.0000
vn 0.3577 0.9338 0.0000
vn 0.9300 0.0000 -0.3676
vn -0.9300 0.0000 0.3676
usemtl Material.001
s off
f 6/1/1 1/2/1 3/3/1 7/4/1
f 4/5/2 12/6/2 10/7/2 2/8/2
f 5/9/3 4/10/3 2/11/3 8/12/3
f 8/13/4 2/14/4 1/15/4 6/16/4
f 4/17/5 5/18/5 7/19/5 3/20/5
f 9/21/6 13/22/6 15/23/6 11/24/6
f 1/25/2 9/26/2 11/27/2 3/28/2
f 3/28/2 11/27/2 12/6/2 4/5/2
f 2/8/2 10/7/2 9/26/2 1/25/2
f 16/29/3 52/30/3 50/31/3 14/32/3
f 11/33/7 54/34/7 53/35/7 12/36/7
f 12/37/6 16/38/6 14/39/6 10/40/6
f 10/40/6 14/39/6 13/22/6 9/21/6
f 14/41/4 50/42/4 49/43/4 13/44/4
f 13/45/1 49/46/1 51/47/1 15/48/1
f 15/49/7 51/50/7 52/51/7 16/52/7
f 12/53/8 53/54/8 55/55/8 16/56/8
f 15/57/9 56/58/9 54/59/9 11/60/9
f 16/61/4 55/62/4 56/63/4 15/64/4
f 8/65/2 6/66/2 7/67/2 5/68/2
f 22/69/3 23/70/3 19/71/3 17/72/3
f 20/73/2 18/74/2 26/75/2 28/76/2
f 21/77/1 24/78/1 18/79/1 20/80/1
f 24/81/7 22/82/7 17/83/7 18/84/7
f 20/85/10 19/86/10 23/87/10 21/88/10
f 25/89/2 27/90/2 31/91/2 29/92/2
f 17/93/2 19/94/2 27/95/2 25/96/2
f 19/94/2 20/73/2 28/76/2 27/95/2
f 18/74/2 17/93/2 25/96/2 26/75/2
f 32/97/1 30/98/1 74/99/1 76/100/1
f 27/101/4 28/102/4 77/103/4 78/104/4
f 28/105/2 26/106/2 30/107/2 32/108/2
f 26/106/2 25/89/2 29/92/2 30/107/2
f 30/109/7 29/110/7 73/111/7 74/112/7
f 29/113/3 31/114/3 75/115/3 73/116/3
f 31/117/4 32/118/4 76/119/4 75/120/4
f 28/121/11 32/122/11 79/123/11 77/124/11
f 31/125/12 27/126/12 78/127/12 80/128/12
f 32/129/7 31/130/7 80/131/7 79/132/7
f 24/133/6 21/134/6 23/135/6 22/136/6
f 38/137/1 39/138/1 35/139/1 33/140/1
f 36/141/2 34/142/2 42/143/2 44/144/2
f 37/145/3 40/146/3 34/147/3 36/148/3
f 40/149/4 38/150/4 33/151/4 34/152/4
f 36/153/13 35/154/13 39/155/13 37/156/13
f 41/157/2 43/158/2 47/159/2 45/160/2
f 33/161/2 35/162/2 43/163/2 41/164/2
f 35/162/2 36/141/2 44/144/2 43/163/2
f 34/142/2 33/161/2 41/164/2 42/143/2
f 48/165/3 46/166/3 50/31/3 52/30/3
f 43/167/7 44/168/7 53/35/7 54/34/7
f 44/169/2 42/170/2 46/171/2 48/172/2
f 42/170/2 41/157/2 45/160/2 46/171/2
f 50/173/2 49/174/2 51/175/2 52/176/2
f 46/177/4 45/178/4 49/43/4 50/42/4
f 45/179/1 47/180/1 51/47/1 49/46/1
f 47/181/7 48/182/7 52/51/7 51/50/7
f 54/183/2 53/184/2 55/185/2 56/186/2
f 44/187/8 48/188/8 55/55/8 53/54/8
f 47/189/9 43/190/9 54/59/9 56/58/9
f 48/191/4 47/192/4 56/63/4 55/62/4
f 40/193/6 37/194/6 39/195/6 38/196/6
f 62/197/3 57/198/3 59/199/3 63/200/3
f 60/201/2 68/202/2 66/203/2 58/204/2
f 61/205/1 60/206/1 58/207/1 64/208/1
f 64/209/7 58/210/7 57/211/7 62/212/7
f 60/213/14 61/214/14 63/215/14 59/216/14
f 65/217/6 69/218/6 71/219/6 67/220/6
f 57/221/2 65/222/2 67/223/2 59/224/2
f 59/224/2 67/223/2 68/202/2 60/201/2
f 58/204/2 66/203/2 65/222/2 57/221/2
f 72/225/1 76/100/1 74/99/1 70/226/1
f 67/227/4 78/104/4 77/103/4 68/228/4
f 68/229/6 72/230/6 70/231/6 66/232/6
f 66/232/6 70/231/6 69/218/6 65/217/6
f 74/233/6 76/234/6 75/235/6 73/236/6
f 70/237/7 74/112/7 73/111/7 69/238/7
f 69/239/3 73/116/3 75/115/3 71/240/3
f 71/241/4 75/120/4 76/119/4 72/242/4
f 78/243/6 80/244/6 79/245/6 77/246/6
f 68/247/11 77/124/11 79/123/11 72/248/11
f 71/249/12 80/128/12 78/127/12 67/250/12
f 72/251/7 79/132/7 80/131/7 71/252/7
f 64/253/2 62/254/2 63/255/2 61/256/2
