# Blender v2.93.2 OBJ File: 'Podium.blend'
# www.blender.org
mtllib Podium.mtl
o Cube
v 0.446960 0.225455 -0.568710
v 0.446960 -0.074956 -0.568710
v 0.446960 0.225455 0.568710
v 0.446960 -0.074956 0.568710
v -0.447516 0.225455 -0.568710
v -0.447516 -0.074956 -0.568710
v -0.447516 0.225455 0.568710
v -0.447516 -0.074956 0.568710
v 0.398810 0.225455 -0.507483
v 0.398810 0.225455 0.507483
v -0.399367 0.225455 -0.507483
v -0.399367 0.225455 0.507483
v 0.398810 0.302711 -0.507483
v 0.398810 0.302711 0.507483
v -0.399367 0.302711 -0.507483
v -0.399367 0.302711 0.507483
v 0.331405 0.302784 -0.421890
v 0.331405 0.302784 0.421890
v -0.332150 0.302784 -0.421890
v -0.332150 0.302784 0.421890
v 0.333852 2.243523 -0.421890
v 0.333852 2.243523 0.421890
v -0.304759 1.973756 -0.421890
v -0.304759 1.973756 0.421890
v 0.579705 2.330585 -0.747752
v 0.579705 2.330585 0.747752
v -0.579901 1.865644 -0.747752
v -0.579901 1.865644 0.747752
v 0.574660 2.460357 -0.747752
v 0.574660 2.460357 0.747752
v -0.618705 1.984451 -0.747752
v -0.618705 1.984451 0.747752
v -0.395084 -0.074956 -0.568710
v -0.395084 0.225455 0.568710
v -0.395084 -0.074956 0.568710
v -0.395084 0.225455 -0.568710
v -0.352579 0.225455 0.507483
v -0.352579 0.225455 -0.507483
v -0.352579 0.302711 0.507483
v -0.352579 0.302711 -0.507483
v -0.293254 0.302784 0.421890
v -0.293254 0.302784 -0.421890
v -0.258976 1.993095 0.421890
v -0.258976 1.993095 -0.421890
v -0.500636 1.891533 0.747752
v -0.500636 1.891533 -0.747752
v -0.539441 2.010340 0.747752
v -0.539441 2.010340 -0.747752
v -0.635528 2.072039 -0.747752
v -0.635528 2.072039 0.747752
v -0.553394 2.057642 0.747752
v -0.553394 2.057642 -0.747752
v 0.391057 -0.074956 0.568710
v 0.391057 0.225455 -0.568710
v 0.348926 0.225455 -0.507483
v 0.348926 0.302711 -0.507483
v 0.289934 0.302784 -0.421890
v 0.285039 2.222905 -0.421890
v 0.495195 2.302983 -0.747752
v 0.456390 2.421790 -0.747752
v 0.391057 -0.074956 -0.568710
v 0.391057 0.225455 0.568710
v 0.348926 0.225455 0.507483
v 0.348926 0.302711 0.507483
v 0.289934 0.302784 0.421890
v 0.285039 2.222905 0.421890
v 0.495195 2.302983 0.747752
v 0.456390 2.421790 0.747752
v 0.535289 2.447559 -0.648444
v 0.535289 2.447559 0.648444
v 0.462002 2.423623 -0.648444
v 0.462002 2.423623 0.648444
v 0.534482 2.444285 -0.647930
v 0.522638 2.433824 -0.619605
v 0.533039 2.441291 -0.645429
v 0.530282 2.438251 -0.639168
v 0.526629 2.435630 -0.630099
v 0.522638 2.433824 0.619605
v 0.534482 2.444285 0.647930
v 0.526629 2.435630 0.630099
v 0.530282 2.438251 0.639167
v 0.533039 2.441291 0.645429
v 0.461256 2.420376 -0.647931
v 0.469693 2.416532 -0.619605
v 0.461395 2.417896 -0.645429
v 0.463048 2.416294 -0.639168
v 0.465961 2.415815 -0.630099
v 0.469693 2.416532 0.619605
v 0.461256 2.420376 0.647931
v 0.465962 2.415815 0.630099
v 0.463048 2.416294 0.639168
v 0.461395 2.417896 0.645429
vt 0.808309 0.673517
vt 0.808309 0.680227
vt 0.803058 0.674065
vt 0.803058 0.668078
vt 0.454111 0.565761
vt 0.454111 0.702901
vt 0.447391 0.702899
vt 0.447391 0.565760
vt 0.701127 0.241215
vt 0.701127 0.377976
vt 0.603567 0.377976
vt 0.603567 0.241215
vt 0.707290 0.015682
vt 0.707290 0.008516
vt 0.804850 0.008516
vt 0.804850 0.015682
vt 0.690258 0.008516
vt 0.690258 0.145556
vt 0.592697 0.145556
vt 0.592697 0.008516
vt 0.686552 0.702901
vt 0.686552 0.565761
vt 0.693717 0.565760
vt 0.693717 0.702899
vt 0.714019 0.401409
vt 0.714019 0.395016
vt 0.749287 0.395007
vt 0.749287 0.401401
vt 0.710749 0.572914
vt 0.710749 0.565760
vt 0.716000 0.571921
vt 0.716000 0.578305
vt 0.710749 0.680227
vt 0.716000 0.674065
vt 0.808309 0.565760
vt 0.803058 0.571921
vt 0.797806 0.793415
vt 0.797806 0.799403
vt 0.790465 0.790803
vt 0.790465 0.785825
vt 0.718159 0.247212
vt 0.718159 0.241215
vt 0.753427 0.241223
vt 0.753427 0.247220
vt 0.805701 0.241215
vt 0.805701 0.328272
vt 0.770458 0.328272
vt 0.770458 0.241215
vt 0.482561 0.719958
vt 0.482561 0.807015
vt 0.447391 0.807015
vt 0.447391 0.719958
vt 0.357985 0.008516
vt 0.430359 0.008516
vt 0.430359 0.769481
vt 0.357985 0.769481
vt 0.710749 0.697259
vt 0.797806 0.697259
vt 0.790465 0.705887
vt 0.718091 0.705887
vt 0.710749 0.799403
vt 0.718091 0.790803
vt 0.710749 0.703643
vt 0.718091 0.711194
vt 0.108840 0.782663
vt 0.108840 0.774079
vt 0.136791 0.726191
vt 0.136791 0.737589
vt 0.233557 0.008563
vt 0.238872 0.008566
vt 0.238872 0.894524
vt 0.232619 0.885108
vt 0.260889 0.894521
vt 0.255904 0.894524
vt 0.259145 0.131714
vt 0.265010 0.122883
vt 0.036466 0.008516
vt 0.108840 0.008516
vt 0.108840 0.893821
vt 0.036466 0.893821
vt 0.008516 0.932259
vt 0.136791 0.932259
vt 0.136791 0.991484
vt 0.008516 0.991484
vt 0.036466 0.774079
vt 0.008516 0.726191
vt 0.036466 0.884669
vt 0.008516 0.920107
vt 0.473531 0.491431
vt 0.471889 0.506931
vt 0.447392 0.475258
vt 0.459786 0.474681
vt 0.696987 0.395007
vt 0.696987 0.523282
vt 0.643277 0.523282
vt 0.643277 0.395007
vt 0.584785 0.483827
vt 0.586535 0.500352
vt 0.552333 0.548728
vt 0.549869 0.525623
vt 0.508447 0.533228
vt 0.506806 0.548728
vt 0.506698 0.306117
vt 0.471781 0.264320
vt 0.584894 0.241216
vt 0.586535 0.256716
vt 0.551619 0.298512
vt 0.549977 0.283012
vt 0.447391 0.205480
vt 0.447391 0.008516
vt 0.575666 0.008516
vt 0.575666 0.205480
vt 0.036466 0.782663
vt 0.008516 0.737589
vt 0.335638 0.894477
vt 0.334700 0.017931
vt 0.153822 0.008516
vt 0.158808 0.008519
vt 0.162928 0.780158
vt 0.157063 0.771326
vt 0.108840 0.884669
vt 0.136791 0.920107
vt 0.710749 0.793415
vt 0.718091 0.785825
vt 0.718159 0.337126
vt 0.753427 0.337134
vt 0.797806 0.703643
vt 0.790465 0.711194
vt 0.710749 0.673517
vt 0.716000 0.668078
vt 0.714019 0.497320
vt 0.714019 0.491323
vt 0.749287 0.491315
vt 0.749287 0.497312
vt 0.579070 0.702926
vt 0.579070 0.565786
vt 0.585790 0.565785
vt 0.585790 0.702924
vt 0.707290 0.123179
vt 0.707290 0.116457
vt 0.804850 0.116457
vt 0.804850 0.123179
vt 0.554873 0.565785
vt 0.554873 0.702924
vt 0.808309 0.572914
vt 0.803058 0.578305
vt 0.805001 0.395007
vt 0.815895 0.395007
vt 0.815895 0.523282
vt 0.805001 0.523282
vt 0.787970 0.395007
vt 0.787970 0.523282
vt 0.766319 0.523282
vt 0.766319 0.395007
vt 0.603567 0.523282
vt 0.603567 0.395007
vt 0.537874 0.315263
vt 0.525479 0.314685
vt 0.562038 0.565786
vt 0.562038 0.702926
vt 0.718159 0.343520
vt 0.753427 0.343528
vt 0.340953 0.894474
vt 0.340953 0.008516
vt 0.447391 0.224183
vt 0.455909 0.206368
vt 0.455909 0.217976
vt 0.508447 0.289591
vt 0.474245 0.241216
vt 0.594997 0.198931
vt 0.594997 0.213343
vt 0.594101 0.212141
vt 0.594103 0.197744
vt 0.575666 0.224183
vt 0.567147 0.217976
vt 0.567147 0.206368
vt 0.594997 0.162589
vt 0.594997 0.177000
vt 0.594103 0.178186
vt 0.594101 0.163790
vt 0.455953 0.216477
vt 0.567103 0.216477
vt 0.818186 0.697259
vt 0.818186 0.808497
vt 0.816710 0.808454
vt 0.816710 0.697303
vt 0.458382 0.211600
vt 0.564674 0.211600
vt 0.565574 0.212461
vt 0.457482 0.212461
vt 0.566352 0.213690
vt 0.456705 0.213690
vt 0.566889 0.215100
vt 0.456167 0.215100
vt 0.458382 0.203215
vt 0.457482 0.202852
vt 0.456704 0.203042
vt 0.592698 0.179450
vt 0.592698 0.166229
vt 0.593346 0.164947
vt 0.593347 0.179033
vt 0.564674 0.203215
vt 0.565574 0.202852
vt 0.566352 0.203042
vt 0.592698 0.209702
vt 0.592698 0.196482
vt 0.593347 0.196898
vt 0.593346 0.210984
vt 0.815577 0.808239
vt 0.815577 0.697517
vt 0.814838 0.807702
vt 0.814838 0.698055
vt 0.822726 0.008516
vt 0.822726 0.118163
vt 0.822341 0.117385
vt 0.822341 0.009294
vt 0.821882 0.116485
vt 0.821882 0.010194
vn 0.0000 1.0000 -0.0000
vn 0.0000 0.0000 1.0000
vn -1.0000 0.0000 0.0000
vn 0.0000 -1.0000 0.0000
vn 1.0000 0.0000 0.0000
vn 0.0000 0.0000 -1.0000
vn 0.0000 1.0000 -0.0009
vn -0.9999 0.0164 0.0000
vn 0.0011 1.0000 0.0000
vn -0.0011 1.0000 0.0000
vn 0.0000 1.0000 0.0009
vn 0.3399 -0.9399 0.0328
vn 1.0000 -0.0013 0.0000
vn 0.9992 0.0388 0.0000
vn 0.3338 -0.9426 0.0000
vn 0.3657 -0.9307 0.0000
vn 0.3401 -0.9404 0.0032
vn -0.9506 -0.3105 0.0000
vn -0.3819 0.9242 0.0000
vn 0.3399 -0.9399 -0.0328
vn 0.3844 -0.9231 0.0118
vn 0.1727 0.9850 0.0000
vn 0.9591 0.2829 -0.0000
vn -0.9821 -0.1886 0.0000
vn 0.3401 -0.9404 -0.0032
vn -0.3102 0.9507 -0.0002
vn 0.3844 -0.9231 -0.0118
vn -0.0549 0.1681 -0.9842
vn -0.3091 0.9510 0.0000
vn -0.3102 0.9507 0.0002
vn -0.3105 0.9506 0.0000
vn -0.0549 0.1681 0.9842
vn -0.9710 0.2392 0.0000
vn 0.9746 -0.2241 0.0000
vn -0.4122 0.9111 -0.0000
vn -0.5831 0.8124 0.0000
vn -0.7406 0.6719 0.0000
vn -0.9008 0.4342 0.0000
vn -0.3102 0.9496 0.0455
vn -0.3070 0.9401 0.1482
vn -0.2952 0.9041 0.3090
vn -0.2240 0.6860 0.6922
vn -0.3102 0.9496 -0.0455
vn -0.3070 0.9401 -0.1482
vn -0.2952 0.9041 -0.3090
vn -0.2240 0.6861 -0.6922
vn 0.9984 0.0561 0.0000
vn 0.6959 0.7182 -0.0000
vn 0.1623 0.9867 0.0000
vn -0.1885 0.9821 0.0000
usemtl Material
s off
f 36/1/1 5/2/1 11/3/1 38/4/1
f 35/5/2 34/6/2 7/7/2 8/8/2
f 8/9/3 7/10/3 5/11/3 6/12/3
f 61/13/4 2/14/4 4/15/4 53/16/4
f 2/17/5 1/18/5 3/19/5 4/20/5
f 61/21/6 54/22/6 1/23/6 2/24/6
f 63/25/2 10/26/2 14/27/2 64/28/2
f 62/29/1 3/30/1 10/31/1 63/32/1
f 5/2/1 7/33/1 12/34/1 11/3/1
f 3/30/1 1/35/1 9/36/1 10/31/1
f 40/37/7 15/38/7 19/39/7 42/40/7
f 38/41/6 11/42/6 15/43/6 40/44/6
f 10/45/5 9/46/5 13/47/5 14/48/5
f 11/49/3 12/50/3 16/51/3 15/52/3
f 19/53/8 20/54/8 24/55/8 23/56/8
f 14/57/9 13/58/9 17/59/9 18/60/9
f 15/38/10 16/61/10 20/62/10 19/39/10
f 64/63/11 14/57/11 18/60/11 65/64/11
f 44/65/12 23/66/12 27/67/12 46/68/12
f 65/69/2 18/70/2 22/71/2 66/72/2
f 42/73/6 19/74/6 23/75/6 44/76/6
f 18/77/13 17/78/13 21/79/13 22/80/13
f 26/81/14 25/82/14 29/83/14 30/84/14
f 22/80/15 21/79/15 25/82/15 26/81/15
f 23/66/16 24/85/16 28/86/16 27/67/16
f 66/87/17 22/80/17 26/81/17 67/88/17
f 48/89/6 31/90/6 49/91/6 52/92/6
f 27/93/18 28/94/18 32/95/18 31/96/18
f 67/97/2 26/98/2 30/99/2 68/100/2
f 46/101/6 27/102/6 31/90/6 48/89/6
f 59/103/6 46/101/6 48/89/6 60/104/6
f 28/105/2 45/106/2 47/107/2 32/108/2
f 60/109/19 48/110/19 47/111/19 68/112/19
f 24/85/20 43/113/20 45/114/20 28/86/20
f 57/115/6 42/73/6 44/76/6 58/116/6
f 20/117/2 41/118/2 43/119/2 24/120/2
f 58/121/21 44/65/21 46/68/21 59/122/21
f 16/61/11 39/123/11 41/124/11 20/62/11
f 55/125/6 38/41/6 40/44/6 56/126/6
f 56/127/7 40/37/7 42/40/7 57/128/7
f 7/33/1 34/129/1 37/130/1 12/34/1
f 12/131/2 37/132/2 39/133/2 16/134/2
f 6/135/6 5/136/6 36/137/6 33/138/6
f 6/139/4 33/140/4 35/141/4 8/142/4
f 53/143/2 62/144/2 34/6/2 35/5/2
f 54/145/1 36/1/1 38/4/1 55/146/1
f 52/147/22 49/148/22 50/149/22 51/150/22
f 47/151/23 48/152/23 52/153/23 51/154/23
f 31/96/24 32/95/24 50/155/24 49/156/24
f 32/108/2 47/107/2 51/157/2 50/158/2
f 1/35/1 54/145/1 55/146/1 9/36/1
f 4/159/2 3/160/2 62/144/2 53/143/2
f 13/58/7 56/127/7 57/128/7 17/59/7
f 9/161/6 55/125/6 56/126/6 13/162/6
f 21/79/25 58/121/25 59/122/25 25/82/25
f 17/163/6 57/115/6 58/116/6 21/164/6
f 29/165/26 60/109/26 71/166/26 69/167/26
f 25/168/6 59/103/6 60/104/6 29/169/6
f 45/106/2 67/97/2 68/100/2 47/107/2
f 43/113/27 66/87/27 67/88/27 45/114/27
f 41/118/2 65/69/2 66/72/2 43/119/2
f 39/123/11 64/63/11 65/64/11 41/124/11
f 34/129/1 62/29/1 63/32/1 37/130/1
f 37/132/2 63/25/2 64/28/2 39/133/2
f 33/138/6 36/137/6 54/22/6 61/21/6
f 33/140/4 61/13/4 53/16/4 35/141/4
f 72/170/28 70/171/28 79/172/28 89/173/28
f 30/174/29 29/165/29 69/167/29 70/175/29
f 68/112/30 30/174/30 70/175/30 72/176/30
f 60/109/31 68/112/31 72/176/31 71/166/31
f 69/177/32 71/178/32 83/179/32 73/180/32
f 70/175/33 69/167/33 73/181/33 79/182/33
f 71/183/34 72/184/34 89/185/34 83/186/34
f 74/187/35 78/188/35 80/189/35 77/190/35
f 77/190/36 80/189/36 81/191/36 76/192/36
f 76/192/37 81/191/37 82/193/37 75/194/37
f 75/194/38 82/193/38 79/182/38 73/181/38
f 84/195/39 74/187/39 77/190/39 87/196/39
f 87/196/40 77/190/40 76/192/40 86/197/40
f 86/198/41 76/199/41 75/200/41 85/201/41
f 85/201/42 75/200/42 73/180/42 83/179/42
f 78/188/43 88/202/43 90/203/43 80/189/43
f 80/189/44 90/203/44 91/204/44 81/191/44
f 81/205/45 91/206/45 92/207/45 82/208/45
f 82/208/46 92/207/46 89/173/46 79/172/46
f 83/186/47 89/185/47 92/209/47 85/210/47
f 85/210/48 92/209/48 91/211/48 86/212/48
f 86/213/49 91/214/49 90/215/49 87/216/49
f 87/216/50 90/215/50 88/217/50 84/218/50
f 74/187/31 84/195/31 88/202/31 78/188/31
